<svg xmlns="http://www.w3.org/2000/svg" viewBox="0 0 283.5 283.5"><path fill="#4C4C4D" d="M33.9 177.5v1.8H11.1v-60.6c0-7.5-3.6-9.7-11.1-10.6v-1.8l22.2.1v60.2s-.3 5.9 1.6 7.6c1.9 1.7 3.6 2.1 10.1 3.3M119.8 174.2c1.7 2 10.1 3.3 10.1 3.3v1.8h-20.4v-60.1h-1.7L81 179.3h-2.6l-28.5-60.1h-.2v47.9s-.1 5.1 1.7 7.1c2 2.2 10 3.2 10 3.2v1.9H43.5v-60.2c0-8.7-1.4-9-11.7-11v-1.8H54l27.3 58.9h.2l25.9-58.9h10.7V166s-.3 5.8 1.7 8.2M193.3 129.3h2.2v-20.8s-68.7-18.5-68.7 33.8c0 22.3 14 34.9 29.3 37.4 16.7 2.7 31.2-3.3 37.9-8.5v-4.8s-49.7 31.2-56-24.1c0 0-2.6-32.7 28.2-32.7 27.9.1 27.1 19.7 27.1 19.7M283.5 142.3c0-21.4-17.9-38.9-39.8-38.9-22 0-39.8 17.4-39.8 38.9 0 1.6.1 3.3.3 4.9h-1c.6 22 19.8 39.8 43.3 39.8 7.8 0 15.2-2 21.5-5.4l-4.4-5.6c11.9-6.8 19.9-19.3 19.9-33.7zm-39.9 36c-20.4 0-37-16.2-37-36 0-19.9 16.6-36 37-36s37 16.2 37 36c0 19.9-16.6 36-37 36z"/><path fill="#21A7E0" d="M249.1 114.2c.4 2.2.7 4.4.7 6.7 0 18.1-14.7 32.8-32.8 32.8-18.1 0-32.8-14.7-32.8-32.8 0-2.2.2-4.5.6-6.6v.4c0 18.1 14.4 32.6 32.1 32.6 17.8 0 32.2-14.7 32.2-32.8v-.3"/><path fill="#21A7E0" d="M271.7 129.2c-6.8 22.5-28.4 38.3-52.7 38.3-29.9 0-54.2-24.7-54.2-55.2 0-13.9 5.6-26.1 14-35.8l.6.6c-6.8 8.6-10.8 19.4-10.8 31 0 28.3 23.9 51.3 53.3 51.3 21.7 0 40.3-12.4 48.6-30.3l.2-.5"/></svg>