<?xml version="1.0" encoding="utf-8"?>
<!-- Generator: Adobe Illustrator 18.1.1, SVG Export Plug-In . SVG Version: 6.00 Build 0)  -->
<!DOCTYPE svg PUBLIC "-//W3C//DTD SVG 1.1//EN" "http://www.w3.org/Graphics/SVG/1.1/DTD/svg11.dtd">
<svg version="1.1" id="Capa_1" xmlns="http://www.w3.org/2000/svg" xmlns:xlink="http://www.w3.org/1999/xlink" x="0px" y="0px"
	 viewBox="0 0 283.5 283.5" enable-background="new 0 0 283.5 283.5" xml:space="preserve">
<g id="Logo">
	<path fill="#4C4C4D" d="M33.9,177.5v1.8H11.7l-0.6,0v-60.6c0-7.5-3.6-9.7-11.1-10.6v-1.8l22.2,0.1v60.2c0,0-0.3,5.9,1.6,7.6
		C25.7,175.9,27.4,176.3,33.9,177.5"/>
	<path fill="#4C4C4D" d="M119.8,174.2c1.7,2,10.1,3.3,10.1,3.3v1.8l-20.4,0v-60.1h-1.7l-26.8,60.1h-2.6l-28.5-60.1h-0.2v47.9
		c0,0-0.1,5.1,1.7,7.1c2,2.2,10,3.2,10,3.2v1.9H43.5v-60.2c0-8.7-1.4-9-11.7-11v-1.8h22.2l27.3,58.9h0.2l25.9-58.9h10.7V166
		C118.1,166,117.8,171.8,119.8,174.2"/>
	<path fill="#4C4C4D" d="M193.3,129.3h2.2v-20.8c0,0-68.7-18.5-68.7,33.8c0,22.3,14,34.9,29.3,37.4c16.7,2.7,31.2-3.3,37.9-8.5v-4.8
		c0,0-49.7,31.2-56-24.1c0,0-2.6-32.7,28.2-32.7C194.1,109.7,193.3,129.3,193.3,129.3"/>
	<path fill="#4C4C4D" d="M283.5,142.3c0-21.4-17.9-38.9-39.8-38.9c-22,0-39.8,17.4-39.8,38.9c0,1.6,0.1,3.3,0.3,4.9l-1,0
		c0.6,22,19.8,39.8,43.3,39.8c7.8,0,15.2-2,21.5-5.4l-4.4-5.6C275.5,169.2,283.5,156.7,283.5,142.3z M243.6,178.3
		c-20.4,0-37-16.2-37-36c0-19.9,16.6-36,37-36c20.4,0,37,16.2,37,36C280.6,162.2,264,178.3,243.6,178.3z"/>
	<path fill="#21A7E0" d="M249.1,114.2c0.4,2.2,0.7,4.4,0.7,6.7c0,18.1-14.7,32.8-32.8,32.8c-18.1,0-32.8-14.7-32.8-32.8
		c0-2.2,0.2-4.5,0.6-6.6v0.4c0,18.1,14.4,32.6,32.1,32.6c17.8,0,32.2-14.7,32.2-32.8L249.1,114.2"/>
	<path fill="#21A7E0" d="M271.7,129.2c-6.8,22.5-28.4,38.3-52.7,38.3c-29.9,0-54.2-24.7-54.2-55.2c0-13.9,5.6-26.1,14-35.8l0.6,0.6
		c-6.8,8.6-10.8,19.4-10.8,31c0,28.3,23.9,51.3,53.3,51.3c21.7,0,40.3-12.4,48.6-30.3l0.2-0.5"/>
</g>
</svg>
